<?xml version="1.0" encoding="UTF-8"?>
<svg id="Layer_1" data-name="Layer 1" xmlns="http://www.w3.org/2000/svg" viewBox="0 0 474.93 442.21">
  <defs>
    <style>
      .cls-1 {
        fill: #574e60;
      }

      .cls-2 {
        fill: #060605;
      }

      .cls-3 {
        fill: #fff;
      }

      .cls-4 {
        fill: #5a544b;
      }

      .cls-5 {
        fill: #080706;
      }

      .cls-6 {
        fill: #5a534b;
      }

      .cls-7 {
        fill: #060505;
      }

      .cls-8 {
        fill: #161111;
      }

      .cls-9 {
        fill: #0f0c0c;
      }

      .cls-10 {
        fill: #838aa2;
        stroke-width: .2px;
      }

      .cls-10, .cls-11 {
        stroke: #231f20;
        stroke-miterlimit: 10;
      }

      .cls-11 {
        stroke-width: 3.17px;
      }

      .cls-12 {
        fill: #1e1e23;
      }

      .cls-13 {
        fill: #5b544a;
      }

      .cls-14 {
        fill: #5a5349;
      }

      .cls-15 {
        fill: #090706;
      }
    </style>
  </defs>
  <path class="cls-3" d="M45.19,198.34c-2.17,17.94-8.84,35.69-17.31,51.55-9.96,18.65-24.94,35.74-26.2,57.89-1.05,18.46,7.15,35.46,20.27,47.93-5.06,10.01-7.14,22.08-6.23,33.27,1.89,23.19,34.64,31.45,53.05,36.36,89.3,23.8,195.64,17.18,285.33-1.94,31.93-6.81,89.31-19.93,111.31-44.79,11.68-13.2,8.47-21.67,3.14-36.99-6.38-18.34-16.18-39.36-32.34-50.82,1.37-4.89,3.34-9.65,4.45-14.74,12.06-55.38-38.07-75.21-66.83-109.87-9.12-10.99-18.08-24-25.83-36.03-1.54-2.39-9.52-14.52-9.5-16.16.02-1.34,2.86-3.93,3.81-5.4,22.62-34.72-6.5-99.92-47.65-106.33-31.71-4.94-49.32,17.59-71.4,35.13-2.17,1.73-7.16,6.01-9.64,6.31s-5.59-.23-8.22,0c-7.74.64-16.36,2.33-23.93,4.1-30.88,7.19-61.85,21.11-84.43,43.67-32.39-7.18-78-12.78-88.81,28.11-4.64,17.55-3.97,37.56,4.82,53.65,6.56,12,17.05,25.5,32.15,25.12Z"/>
  <path class="cls-11" d="M45.19,198.34c-15.1.37-25.59-13.12-32.15-25.12-8.79-16.09-9.46-36.1-4.82-53.65,10.81-40.89,56.42-35.29,88.81-28.11,22.58-22.56,53.55-36.48,84.43-43.67,7.57-1.76,16.2-3.45,23.93-4.1,2.64-.22,5.68.31,8.22,0s7.47-4.58,9.64-6.31c22.08-17.53,39.68-40.06,71.4-35.13,41.15,6.41,70.27,71.6,47.65,106.33-.96,1.47-3.8,4.06-3.81,5.4-.02,1.64,7.97,13.77,9.5,16.16,7.74,12.03,16.7,25.04,25.83,36.03,28.76,34.66,78.9,54.49,66.83,109.87-1.11,5.09-3.08,9.85-4.45,14.74,16.16,11.45,25.96,32.48,32.34,50.82,5.33,15.32,8.54,23.79-3.14,36.99-22,24.86-79.38,37.98-111.31,44.79-89.68,19.13-196.03,25.75-285.33,1.94-18.41-4.91-51.16-13.17-53.05-36.36-.91-11.19,1.16-23.26,6.23-33.27-13.12-12.47-21.32-29.47-20.27-47.93,1.26-22.14,16.24-39.24,26.2-57.89,8.47-15.86,15.14-33.61,17.31-51.55ZM383.48,338.01c23.95-15.99,46.03-32.01,52.92-61.85,12.48-54.02-36.06-72.42-64.51-105.61-10.69-12.47-22.37-29.09-30.66-43.28-1.53-2.61-7-11.52-6.47-14.1.17-.81,3.54-4.92,4.33-6.31,22.25-39.17-10.28-102.52-57.35-100.84-15.15.54-20.21,5.86-31.4,14.51-10.85,8.39-21.17,17.7-32,25.99-41.93,2.64-86.67,17.65-117.6,46.72-1.48,1.39-8.87,9.6-9.52,9.81-1.46.47-3.19.3-2.92-1.52.25-1.68,5.28-6.09,4.71-6.59-27.62-5.7-69.9-10.95-80.08,23.57-3.6,12.21-4.2,28.16-1.17,40.52,2.82,11.5,14.98,31.59,27.02,34.83,3.26.88,6.05.29,9.19,1.2,1.7,1.95-.87,13.51-1.51,16.43-6.41,29.25-20.78,45.74-33.45,70.94-16.84,33.5-3.68,64.27,26.35,83.62,0,1.28.41,1.62-1.17,1.42-2.16-.28-7.39-4.11-9.42-5.57-.94-.67-3.57-3.33-4.16-3.58-.93-.39-1.48,2.26-1.68,2.9-2.89,8.91-5.43,26.15-1.69,34.8,6.64,15.34,33.22,21.09,47.98,24.99,94.43,24.99,207.83,16.99,302.16-5.41,27.08-6.43,74.21-19.33,92.55-40.84,9.23-10.82,4.54-21.64.24-33.6-4.91-13.68-14.68-34.8-25.88-44.2-.99-.83-2.45-2.24-3.61-1.95-1.6.4-2.5,3.45-3.48,4.98-8.65,13.55-19.48,23.05-32.62,32.14-3.21,2.22-8.36,6.11-11.73,7.6-1.07.47-1.9.9-3.15.71l-.25-2.42Z"/>
  <path class="cls-10" d="M39.39,366.04c-30.03-19.35-43.19-50.11-26.35-83.62,12.67-25.2,27.03-41.69,33.45-70.94.64-2.92,3.21-14.48,1.51-16.43-3.15-.91-5.93-.32-9.19-1.2-12.05-3.24-24.21-23.34-27.02-34.83-3.03-12.36-2.43-28.31,1.17-40.52,10.18-34.52,52.46-29.27,80.08-23.57.57.51-4.46,4.92-4.71,6.59-.27,1.82,1.46,1.99,2.92,1.52.65-.21,8.03-8.42,9.52-9.81,30.93-29.07,75.67-44.07,117.6-46.72,10.83-8.29,21.15-17.6,32-25.99,11.19-8.66,16.25-13.97,31.4-14.51,47.07-1.68,79.6,61.67,57.35,100.84-.79,1.39-4.17,5.51-4.33,6.31-.54,2.59,4.94,11.49,6.47,14.1,8.29,14.19,19.97,30.81,30.66,43.28,28.45,33.19,76.99,51.59,64.51,105.61-6.89,29.84-28.97,45.87-52.92,61.85-5.3,3.54-9.96,5.24-14.51,10.38-7.35,8.31-4.45,14.85,6.95,10.33,18.66-7.39,46.61-38,55.97-55.67,1.33-2.51,2.81-5.11,2.82-8.06,1.16-.29,2.62,1.12,3.61,1.95,11.19,9.4,20.97,30.51,25.88,44.2,4.3,11.97,8.98,22.78-.24,33.6-18.33,21.51-65.47,34.41-92.55,40.84-94.33,22.4-207.72,30.4-302.16,5.41-14.76-3.91-41.35-9.65-47.98-24.99-3.74-8.65-1.2-25.89,1.69-34.8.95.02,1.36.58,1.93,1.21,5.95,6.62,17.23,16.68,26.4,17.59,4.86.48,7.61-2.41,3.06-5.96-4-3.12-10.68-5.26-14.95-8.01ZM282.96,24.85c-.46.19-1.32-.32-2.18.48s-3.78,6.96-4.87,8.67c-2.15,3.34-6.47,8.24-7.97,11.36-1.32,2.77.44,2.08.52,2.21.1.16-.11,1.07.12,1.55,4.99,10.54,22.33,27.75,34.51,28.38,10.05.52,9.91-13.08,9.34-20.01-1.02-12.45-12.57-37.38-28.16-33.47-.74.18-1.04.73-1.31.84ZM250.45,113.88c-1.47.3-3.34,1.84-4.14,3.11-5.42,8.61,6.76,17.43,12.21,9.79,4.27-5.98-.94-14.36-8.07-12.9ZM37.94,124.4c-12.05,10.06-8.77,34.6,5.7,41.42,11.54,5.44,13.78-3.97,17.02-12.66,2.32-6.19,3.96-12.67,6.27-18.86,1.24-3.32,3.04-6.44,3.87-9.9.89-.86,2.41-2.22.48-3.14-1.63-.78-10.83,1.98-13.75,2.19-3.31.24-7.8.15-11.15,0-2.26-.1-6.26-1.71-7.95-.24-.42.37-.41,1.13-.48,1.19ZM188.14,125.03c-41.85,3.7-69.99,59-78.44,95.05-8.24,35.14-6.8,99.99,25.91,122.95,31.31,21.97,94.92,16.24,126.53-2.88,49.15-29.75,57.94-72.73,27.11-121.27-14.3-22.53-36.09-48.28-54.37-67.9-11.79-12.66-28.11-27.59-46.74-25.95ZM108.87,151.56c-7.95,1.1-7.43,14.83.83,14.43,9.05-.43,7.84-15.64-.83-14.43ZM319.54,175.21c-.78.19-1.47,1.19-1.26,2.01.32,1.23,7.8,7.08,9.27,7.69,1.93.81,2.88-.22,2.03-2.03-.7-1.5-8.28-8.11-10.05-7.67ZM321.13,189.64c1.27-1.26-6.21-9.68-8.08-10.07s-2.45.53-1.7,2.21c.77,1.71,8.38,9.24,9.78,7.86ZM76.43,235.61c-1.13.37-5.38,9.68-2.95,11.05.95.16,1.39-.28,1.88-.99.99-1.43,5.38-11.48,1.07-10.06ZM67.25,237.53c-1.76.3-5.17,8.96-2.95,10.59,2.66.8,6.43-11.19,2.95-10.59ZM155.37,398.41c2.41,2.93,7.14,3.98,10.86,5.33,20.95,7.58,42.2,13.33,64.76,11.1,24-2.37,74.65-19.98,91.58-37.21.54-.55,2.78-2.13,2.9-2.67l-.79-1.16c-1.01-.3-15.16,5.1-17.69,5.89-37.81,11.8-96.52,19.58-135.92,17.26-5.34-.31-10.9-1.54-16.19-1.19-2.08,1.58-.29,1.72.48,2.65Z"/>
  <path class="cls-4" d="M434.7,294.99c0,2.95-1.49,5.54-2.82,8.06-9.36,17.67-37.31,48.27-55.97,55.67-11.4,4.52-14.3-2.02-6.95-10.33,4.55-5.14,9.21-6.84,14.51-10.38l.25,2.42c1.25.19,2.08-.23,3.15-.71,3.37-1.5,8.52-5.38,11.73-7.6,13.13-9.09,23.96-18.59,32.62-32.14.98-1.53,1.87-4.58,3.48-4.98Z"/>
  <path class="cls-13" d="M22.96,361.2c.21-.63.75-3.29,1.68-2.9.59.25,3.22,2.91,4.16,3.58,2.03,1.46,7.26,5.28,9.42,5.57,1.58.21,1.18-.14,1.17-1.42,4.27,2.75,10.95,4.89,14.95,8.01,4.55,3.55,1.81,6.44-3.06,5.96-9.17-.91-20.45-10.97-26.4-17.59-.57-.63-.97-1.2-1.93-1.21Z"/>
  <path d="M188.14,125.03c18.63-1.65,34.95,13.29,46.74,25.95,18.28,19.62,40.07,45.37,54.37,67.9,30.83,48.55,22.04,91.52-27.11,121.27-31.6,19.13-95.22,24.86-126.53,2.88-32.71-22.96-34.15-87.81-25.91-122.95,8.45-36.05,36.59-91.35,78.44-95.05ZM119.8,200.45c-12.22,30.75-14.15,69.98-5.37,101.9,8.22,29.87,23.23,43.91,53.9,49.52,24.86,4.54,67.03-1.03,89.33-13.3,48.42-26.62,59.39-71.37,28.1-117.67-15.28-22.61-33.87-45.98-52.34-66.06-19.19-20.87-37.37-34.84-65.64-18.75-24.8,14.12-37.88,38.91-47.99,64.36Z"/>
  <path class="cls-14" d="M322.58,377.63c-16.94,17.23-67.58,34.83-91.58,37.21-22.56,2.23-43.81-3.52-64.76-11.1-3.72-1.35-8.45-2.39-10.86-5.33,4.64.96,9.51,1.59,14.26,1.93,22.77,1.63,50.12-1.07,72.91-3.92,27.73-3.47,51.2-9.08,77.44-18.25.87-.3,1.61-.73,2.6-.54Z"/>
  <path class="cls-14" d="M268.46,47.56c4.01-.73,5.61-5.37,8.11-8.08.48-.52.5-1.35,1.55-1.1,1.01,1.08-8.8,14.09,5.8,9.67.05,2.05-1.79,3.61-.51,5.59,1.03,1.59,7.45,2.68,8.72.45-1.22-1.6-2.88-2.28-4.81-2.68-.93-1.28,6.7-10.37-7.26-6.74,1.02-5.46,4.33-12.08,3.89-17.66-.07-.9-.43-1.49-.99-2.15.27-.11.57-.66,1.31-.84,15.6-3.91,27.14,21.02,28.16,33.47.57,6.93.71,20.53-9.34,20.01-12.18-.63-29.53-17.83-34.51-28.38-.23-.48-.02-1.39-.12-1.55ZM294.9,57.81c-3.63,1.11.2,4.03,3.78,3.8,5.19-.33-.11-4.92-3.78-3.8Z"/>
  <path class="cls-6" d="M37.94,124.4c6.31,3.3,15.19,3.05,22.23,2.42l-3.32,2.27c-.56,2.69,2.36,2.51,3.79,3.77,0,.46-5.75,5.19-6.39,6.65-.97,2.21.13,3.61,2.32,2.32,1.13-.67,7.07-7.14,7.58-8.39,1.01-2.5-1.27-2.06-1.56-4.2,2.9-1.05,5.98-2.67,8.21-4.84-.83,3.46-2.64,6.58-3.87,9.9-2.31,6.2-3.95,12.67-6.27,18.86-3.25,8.68-5.48,18.1-17.02,12.66-14.47-6.82-17.74-31.36-5.7-41.42ZM59.68,146.15c-1.46-1.47-8.37,6.4-5.31,7.99,2.38,1.24,6.18-7.11,5.31-7.99Z"/>
  <path class="cls-15" d="M322.58,377.63c-.98-.19-1.73.24-2.6.54-26.24,9.17-49.71,14.78-77.44,18.25-22.79,2.85-50.14,5.55-72.91,3.92-4.75-.34-9.62-.97-14.26-1.93-.76-.93-2.56-1.07-.48-2.65,5.29-.34,10.85.88,16.19,1.19,39.4,2.32,98.11-5.46,135.92-17.26,2.53-.79,16.67-6.19,17.69-5.89l.79,1.16c-.12.54-2.36,2.12-2.9,2.67Z"/>
  <path class="cls-7" d="M282.96,24.85c.56.66.92,1.25.99,2.15.44,5.58-2.86,12.21-3.89,17.66,13.97-3.63,6.33,5.46,7.26,6.74,1.92.41,3.59,1.08,4.81,2.68-1.27,2.23-7.69,1.14-8.72-.45-1.28-1.98.56-3.54.51-5.59-14.59,4.42-4.79-8.59-5.8-9.67-1.05-.25-1.07.59-1.55,1.1-2.51,2.71-4.1,7.35-8.11,8.08-.08-.13-1.84.55-.52-2.21,1.49-3.12,5.81-8.02,7.97-11.36,1.1-1.7,4.01-7.86,4.87-8.67s1.72-.29,2.18-.48Z"/>
  <path class="cls-5" d="M37.94,124.4c.07-.06.06-.82.48-1.19,1.69-1.47,5.7.14,7.95.24,3.36.15,7.85.24,11.15,0,2.92-.21,12.12-2.97,13.75-2.19,1.93.92.41,2.28-.48,3.14-2.23,2.17-5.32,3.79-8.21,4.84.29,2.14,2.58,1.69,1.56,4.2-.5,1.24-6.45,7.72-7.58,8.39-2.19,1.3-3.29-.11-2.32-2.32.64-1.45,6.39-6.19,6.39-6.65-1.44-1.26-4.35-1.08-3.79-3.77l3.32-2.27c-7.04.63-15.92.88-22.23-2.42Z"/>
  <path d="M250.45,113.88c7.13-1.45,12.34,6.92,8.07,12.9-5.45,7.64-17.63-1.18-12.21-9.79.8-1.27,2.67-2.81,4.14-3.11Z"/>
  <path d="M108.87,151.56c8.67-1.2,9.88,14,.83,14.43-8.26.4-8.78-13.33-.83-14.43Z"/>
  <path d="M319.54,175.21c1.77-.44,9.35,6.18,10.05,7.67.85,1.82-.1,2.85-2.03,2.03-1.47-.62-8.95-6.47-9.27-7.69-.22-.82.48-1.82,1.26-2.01Z"/>
  <path d="M321.13,189.64c-1.4,1.38-9.01-6.15-9.78-7.86-.75-1.68-.18-2.6,1.7-2.21s9.35,8.81,8.08,10.07Z"/>
  <path d="M76.43,235.61c4.31-1.42-.08,8.63-1.07,10.06-.5.72-.93,1.15-1.88.99-2.43-1.37,1.83-10.68,2.95-11.05Z"/>
  <path d="M67.25,237.53c3.48-.6-.3,11.39-2.95,10.59-2.22-1.63,1.2-10.28,2.95-10.59Z"/>
  <path class="cls-3" d="M119.8,200.45c10.11-25.45,23.19-50.24,47.99-64.36,28.27-16.1,46.45-2.13,65.64,18.75,18.47,20.09,37.06,43.46,52.34,66.06,31.29,46.3,20.32,91.05-28.1,117.67-22.31,12.26-64.48,17.84-89.33,13.3-30.67-5.61-45.69-19.65-53.9-49.52-8.78-31.91-6.85-71.14,5.37-101.9ZM185.72,193.65c-11.06,1.06-38.59,11.98-45.05,21.15-7.25,10.28,4.86,23.69,12.55,29.92,14.24,11.55,34.72,18.92,46.53.16,12.98-20.63,24.39-54.93-14.02-51.23ZM266.04,227.82c-1.62-1.62-6.46,5.68-7.48,6.77-26.42,28.22-76.8,54.15-116.25,46.16-1.84-.37-8.12-2.76-8.92-2.7-2.34.18-1.05,2.31.72,3.17,29.87,14.46,81.51-6.66,106.28-25.17,6.43-4.81,22.02-18.18,25.1-25.16.47-1.07.74-1.85.56-3.06Z"/>
  <path class="cls-5" d="M294.9,57.81c3.67-1.12,8.97,3.48,3.78,3.8-3.57.22-7.41-2.7-3.78-3.8Z"/>
  <path class="cls-2" d="M59.68,146.15c.87.88-2.93,9.24-5.31,7.99-3.06-1.6,3.86-9.47,5.31-7.99Z"/>
  <path class="cls-9" d="M185.72,193.65c38.41-3.7,27.01,30.6,14.02,51.23-11.8,18.76-32.29,11.39-46.53-.16-7.68-6.23-19.79-19.64-12.55-29.92,6.46-9.17,33.99-20.09,45.05-21.15ZM165.04,203.17c-6.33,2.52-20.65,8.34-23.56,14.86-2.94,6.57,5.24,16.59,9.78,20.92,9.43,9,22.92,16.94,36.02,12.55.9-.3,1.49.07,2.88-.75,5.9-3.49,15.96-23.87,17.58-30.74,2.98-12.63,1.76-22.12-12.95-23.14-11.68-.81-19.26,2.13-29.74,6.3Z"/>
  <path class="cls-8" d="M266.04,227.82c.18,1.21-.08,1.99-.56,3.06-3.07,6.99-18.66,20.35-25.1,25.16-24.77,18.52-76.41,39.64-106.28,25.17-1.77-.86-3.06-2.99-.72-3.17.8-.06,7.08,2.33,8.92,2.7,39.45,7.99,89.83-17.95,116.25-46.16,1.02-1.09,5.86-8.39,7.48-6.77Z"/>
  <path class="cls-1" d="M187.27,251.5c-4.4-1.69-8.68-3.81-12.52-6.57-3.77-2.7-5.46-4.58-7.98-8.45-7.03-10.82-9.61-22.04-1.73-33.3,10.48-4.17,18.06-7.11,29.74-6.3,14.71,1.02,15.93,10.51,12.95,23.14-1.62,6.87-11.69,27.25-17.58,30.74-1.38.82-1.98.44-2.88.75Z"/>
  <path class="cls-12" d="M165.04,203.17c-7.88,11.27-5.3,22.49,1.73,33.3,2.52,3.87,4.21,5.75,7.98,8.45,3.84,2.76,8.12,4.88,12.52,6.57-13.1,4.39-26.59-3.55-36.02-12.55-4.54-4.33-12.72-14.35-9.78-20.92,2.91-6.51,17.23-12.33,23.56-14.86Z"/>
</svg>